<svg width="14" height="15" viewBox="0 0 14 15" fill="none" xmlns="http://www.w3.org/2000/svg">
<path d="M7 1.5C3.6862 1.5 1 4.1862 1 7.5C1 10.8138 3.6862 13.5 7 13.5C10.3138 13.5 13 10.8138 13 7.5C13 4.1862 10.3138 1.5 7 1.5Z" fill="#31CC9D"/>
<path d="M5.35042 6.68511C4.95989 6.29458 4.32673 6.29458 3.9362 6.68511C3.54568 7.07563 3.54568 7.70879 3.9362 8.09932L5.35042 6.68511ZM6.62433 9.37323L5.91722 10.0803C6.30775 10.4709 6.94091 10.4709 7.33143 10.0803L6.62433 9.37323ZM10.2237 7.18811C10.6142 6.79759 10.6142 6.16442 10.2237 5.7739C9.83313 5.38337 9.19997 5.38337 8.80945 5.7739L10.2237 7.18811ZM3.9362 8.09932L5.91722 10.0803L7.33143 8.66612L5.35042 6.68511L3.9362 8.09932ZM7.33143 10.0803L10.2237 7.18811L8.80945 5.7739L5.91722 8.66612L7.33143 10.0803Z" fill="#282933"/>
</svg>
