<svg width="14" height="15" viewBox="0 0 14 15" fill="none" xmlns="http://www.w3.org/2000/svg">
<mask id="path-1-inside-1_323_588" fill="white">
<path fill-rule="evenodd" clip-rule="evenodd" d="M1 7.5C1 4.1862 3.6862 1.5 7 1.5C10.3138 1.5 13 4.1862 13 7.5C13 10.8138 10.3138 13.5 7 13.5C3.6862 13.5 1 10.8138 1 7.5ZM6.17679 8.07937C6.13717 8.29065 6.11737 8.54155 6.11737 8.83206H7.81091C7.81091 8.52834 7.87693 8.28735 8.00898 8.10908C8.14103 7.92421 8.316 7.74594 8.53388 7.57428C8.67914 7.46204 8.81779 7.34319 8.94984 7.21774C9.08849 7.08569 9.20734 6.94044 9.30638 6.78198C9.41202 6.61692 9.49455 6.43535 9.55397 6.23727C9.61339 6.0392 9.6431 5.81471 9.6431 5.56382C9.6431 5.20728 9.58038 4.89696 9.45493 4.63286C9.32948 4.36876 9.15782 4.15088 8.93994 3.97921C8.72866 3.80755 8.47776 3.6788 8.18725 3.59297C7.89674 3.50714 7.58642 3.46422 7.2563 3.46422C6.84034 3.46422 6.44089 3.54015 6.05794 3.69201C5.675 3.83726 5.34487 4.03203 5.06757 4.27633L5.71131 5.48458C5.90278 5.31952 6.09756 5.20068 6.29563 5.12805C6.49371 5.05542 6.67198 5.01911 6.83044 5.01911C7.07473 5.01911 7.27611 5.08844 7.43457 5.22709C7.59963 5.35914 7.68216 5.54071 7.68216 5.77179C7.68216 5.95006 7.61944 6.11512 7.49399 6.26698C7.36854 6.41224 7.22659 6.55089 7.06813 6.68294C6.92287 6.80178 6.79082 6.92723 6.67198 7.05928C6.55313 7.19133 6.45079 7.33989 6.36496 7.50495C6.28573 7.67001 6.22301 7.86149 6.17679 8.07937ZM6.90471 9.66397C6.38783 9.66397 5.96881 10.083 5.96881 10.5999C5.96881 11.1168 6.38783 11.5358 6.90471 11.5358H7.00375C7.52064 11.5358 7.93966 11.1168 7.93966 10.5999C7.93966 10.083 7.52064 9.66397 7.00375 9.66397H6.90471Z"/>
</mask>
<path fill-rule="evenodd" clip-rule="evenodd" d="M1 7.5C1 4.1862 3.6862 1.5 7 1.5C10.3138 1.5 13 4.1862 13 7.5C13 10.8138 10.3138 13.5 7 13.5C3.6862 13.5 1 10.8138 1 7.5ZM6.17679 8.07937C6.13717 8.29065 6.11737 8.54155 6.11737 8.83206H7.81091C7.81091 8.52834 7.87693 8.28735 8.00898 8.10908C8.14103 7.92421 8.316 7.74594 8.53388 7.57428C8.67914 7.46204 8.81779 7.34319 8.94984 7.21774C9.08849 7.08569 9.20734 6.94044 9.30638 6.78198C9.41202 6.61692 9.49455 6.43535 9.55397 6.23727C9.61339 6.0392 9.6431 5.81471 9.6431 5.56382C9.6431 5.20728 9.58038 4.89696 9.45493 4.63286C9.32948 4.36876 9.15782 4.15088 8.93994 3.97921C8.72866 3.80755 8.47776 3.6788 8.18725 3.59297C7.89674 3.50714 7.58642 3.46422 7.2563 3.46422C6.84034 3.46422 6.44089 3.54015 6.05794 3.69201C5.675 3.83726 5.34487 4.03203 5.06757 4.27633L5.71131 5.48458C5.90278 5.31952 6.09756 5.20068 6.29563 5.12805C6.49371 5.05542 6.67198 5.01911 6.83044 5.01911C7.07473 5.01911 7.27611 5.08844 7.43457 5.22709C7.59963 5.35914 7.68216 5.54071 7.68216 5.77179C7.68216 5.95006 7.61944 6.11512 7.49399 6.26698C7.36854 6.41224 7.22659 6.55089 7.06813 6.68294C6.92287 6.80178 6.79082 6.92723 6.67198 7.05928C6.55313 7.19133 6.45079 7.33989 6.36496 7.50495C6.28573 7.67001 6.22301 7.86149 6.17679 8.07937ZM6.90471 9.66397C6.38783 9.66397 5.96881 10.083 5.96881 10.5999C5.96881 11.1168 6.38783 11.5358 6.90471 11.5358H7.00375C7.52064 11.5358 7.93966 11.1168 7.93966 10.5999C7.93966 10.083 7.52064 9.66397 7.00375 9.66397H6.90471Z" fill="#EB9A21"/>
<path d="M6.11737 8.83206V9.83206H5.11737V8.83206H6.11737ZM6.17679 8.07937L5.19392 7.89508L5.1961 7.88345L5.19855 7.87187L6.17679 8.07937ZM7.81091 8.83206H8.81091V9.83206H7.81091V8.83206ZM8.00898 8.10908L8.82272 8.69032L8.81769 8.69736L8.81254 8.70431L8.00898 8.10908ZM8.53388 7.57428L7.91498 6.78875L7.92243 6.78299L8.53388 7.57428ZM8.94984 7.21774L9.6395 7.94188L9.63859 7.94274L8.94984 7.21774ZM9.30638 6.78198L8.45833 6.25195L8.46411 6.24292L9.30638 6.78198ZM9.45493 4.63286L8.55165 5.06192L8.55165 5.06192L9.45493 4.63286ZM8.93994 3.97921L8.32106 4.76471L8.31517 4.76006L8.30934 4.75533L8.93994 3.97921ZM6.05794 3.69201L6.42657 4.62158L6.4196 4.62435L6.4126 4.627L6.05794 3.69201ZM5.06757 4.27633L4.18501 4.74654L3.8132 4.04867L4.40654 3.52597L5.06757 4.27633ZM5.71131 5.48458L6.36425 6.242L5.41689 7.05868L4.82876 5.9548L5.71131 5.48458ZM6.29563 5.12805L5.95138 4.18917L5.95138 4.18917L6.29563 5.12805ZM7.43457 5.22709L6.80987 6.00795L6.79265 5.99418L6.77606 5.97967L7.43457 5.22709ZM7.49399 6.26698L8.26495 6.90386L8.25797 6.91231L8.25081 6.9206L7.49399 6.26698ZM7.06813 6.68294L7.70834 7.45119L7.70136 7.4569L7.06813 6.68294ZM6.67198 7.05928L5.92868 6.39032L5.92868 6.39032L6.67198 7.05928ZM6.36496 7.50495L5.46344 7.07222L5.47036 7.05779L5.47774 7.0436L6.36496 7.50495ZM7 2.5C4.23849 2.5 2 4.73848 2 7.5H0C0 3.63392 3.13392 0.499999 7 0.499999V2.5ZM12 7.5C12 4.73849 9.76151 2.5 7 2.5V0.499999C10.8661 0.499999 14 3.63391 14 7.5H12ZM7 12.5C9.76152 12.5 12 10.2615 12 7.5H14C14 11.3661 10.8661 14.5 7 14.5V12.5ZM2 7.5C2 10.2615 4.23849 12.5 7 12.5V14.5C3.13392 14.5 0 11.3661 0 7.5H2ZM5.11737 8.83206C5.11737 8.49971 5.13974 8.18404 5.19392 7.89508L7.15966 8.26366C7.13461 8.39726 7.11737 8.58338 7.11737 8.83206H5.11737ZM7.81091 9.83206H6.11737V7.83206H7.81091V9.83206ZM8.81254 8.70431C8.84764 8.65693 8.81091 8.66498 8.81091 8.83206H6.81091C6.81091 8.3917 6.90623 7.91777 7.20543 7.51385L8.81254 8.70431ZM9.15275 8.35977C8.99341 8.48532 8.88925 8.59718 8.82272 8.69032L7.19525 7.52784C7.39282 7.25125 7.63859 7.00657 7.91501 6.78879L9.15275 8.35977ZM9.63859 7.94274C9.48172 8.09177 9.31725 8.23272 9.14533 8.36556L7.92243 6.78299C8.04102 6.69136 8.15386 6.59461 8.26109 6.49274L9.63859 7.94274ZM10.1544 7.31198C10.0098 7.54327 9.83735 7.75345 9.6395 7.94188L8.26018 6.49361C8.33963 6.41794 8.40486 6.3376 8.45838 6.25198L10.1544 7.31198ZM10.5118 6.52462C10.4272 6.80664 10.307 7.07363 10.1486 7.32103L8.46411 6.24292C8.51705 6.1602 8.5619 6.06405 8.59614 5.94992L10.5118 6.52462ZM10.6431 5.56382C10.6431 5.89206 10.6044 6.21595 10.5118 6.52462L8.59614 5.94992C8.62239 5.86244 8.6431 5.73736 8.6431 5.56382H10.6431ZM10.3582 4.2038C10.5598 4.62812 10.6431 5.09082 10.6431 5.56382H8.6431C8.6431 5.32374 8.601 5.1658 8.55165 5.06192L10.3582 4.2038ZM9.55881 3.19372C9.90422 3.46587 10.1703 3.8083 10.3582 4.20381L8.55165 5.06192C8.48862 4.92922 8.41142 4.83589 8.32106 4.76471L9.55881 3.19372ZM8.4706 2.63395C8.8735 2.75299 9.24575 2.93922 9.57053 3.2031L8.30934 4.75533C8.21157 4.67588 8.08202 4.60461 7.9039 4.55199L8.4706 2.63395ZM7.2563 2.46422C7.6738 2.46422 8.08024 2.51862 8.4706 2.63395L7.9039 4.55199C7.71324 4.49565 7.49905 4.46422 7.2563 4.46422V2.46422ZM5.68932 2.76243C6.19076 2.56358 6.71538 2.46422 7.2563 2.46422V4.46422C6.9653 4.46422 6.69102 4.51671 6.42657 4.62158L5.68932 2.76243ZM4.40654 3.52597C4.78329 3.19407 5.22008 2.94029 5.70329 2.75701L6.4126 4.627C6.12992 4.73423 5.90646 4.87 5.7286 5.02669L4.40654 3.52597ZM4.82876 5.9548L4.18501 4.74654L5.95012 3.80611L6.59386 5.01437L4.82876 5.9548ZM6.63989 6.06693C6.57473 6.09082 6.48219 6.14033 6.36425 6.242L5.05837 4.72717C5.32338 4.49872 5.62039 4.31054 5.95138 4.18917L6.63989 6.06693ZM6.83044 6.01911C6.82116 6.01911 6.76205 6.02213 6.63989 6.06693L5.95138 4.18917C6.22537 4.08871 6.52279 4.01911 6.83044 4.01911V6.01911ZM6.77606 5.97967C6.78469 5.98722 6.79525 5.99494 6.80727 6.00189C6.81925 6.00882 6.83031 6.01359 6.83918 6.01664C6.85737 6.0229 6.85783 6.01911 6.83044 6.01911V4.01911C7.2758 4.01911 7.72356 4.15119 8.09307 4.47451L6.77606 5.97967ZM6.68216 5.77179C6.68216 5.77649 6.68343 5.81789 6.70989 5.8761C6.73756 5.93697 6.7772 5.98182 6.80987 6.00795L8.05926 4.44622C8.48571 4.78738 8.68216 5.26928 8.68216 5.77179H6.68216ZM6.72303 5.6301C6.72408 5.62882 6.71202 5.64332 6.70033 5.67407C6.68816 5.70611 6.68216 5.74073 6.68216 5.77179H8.68216C8.68216 6.20729 8.52187 6.59285 8.26495 6.90386L6.72303 5.6301ZM6.42794 5.91472C6.54755 5.81505 6.64994 5.71436 6.73717 5.61336L8.25081 6.9206C8.08714 7.11012 7.90562 7.28673 7.70831 7.45116L6.42794 5.91472ZM5.92868 6.39032C6.08334 6.21847 6.25253 6.05818 6.43489 5.90898L7.70136 7.4569C7.59321 7.54539 7.4983 7.63599 7.41527 7.72825L5.92868 6.39032ZM5.47774 7.0436C5.60074 6.80707 5.75067 6.58811 5.92868 6.39032L7.41527 7.72825C7.35559 7.79455 7.30085 7.87271 7.25218 7.9663L5.47774 7.0436ZM5.19855 7.87187C5.25787 7.59225 5.3433 7.32251 5.46344 7.07222L7.26648 7.93768C7.22816 8.01751 7.18814 8.13073 7.15502 8.28687L5.19855 7.87187ZM4.96881 10.5999C4.96881 9.5307 5.83554 8.66397 6.90471 8.66397V10.664C6.94011 10.664 6.96881 10.6353 6.96881 10.5999H4.96881ZM6.90471 12.5358C5.83554 12.5358 4.96881 11.669 4.96881 10.5999H6.96881C6.96881 10.5645 6.94011 10.5358 6.90471 10.5358V12.5358ZM7.00375 12.5358H6.90471V10.5358H7.00375V12.5358ZM8.93966 10.5999C8.93966 11.669 8.07292 12.5358 7.00375 12.5358V10.5358C6.96835 10.5358 6.93966 10.5645 6.93966 10.5999H8.93966ZM7.00375 8.66397C8.07292 8.66397 8.93966 9.5307 8.93966 10.5999H6.93966C6.93966 10.6353 6.96835 10.664 7.00375 10.664V8.66397ZM6.90471 8.66397H7.00375V10.664H6.90471V8.66397Z" fill="#EB9A21" mask="url(#path-1-inside-1_323_588)"/>
</svg>
