<svg width="14" height="14" viewBox="0 0 14 14" fill="none" xmlns="http://www.w3.org/2000/svg">
<path fill-rule="evenodd" clip-rule="evenodd" d="M7 0.999999C3.6862 0.999999 1 3.6862 1 7C1 10.3138 3.6862 13 7 13C10.3138 13 13 10.3138 13 7C13 3.6862 10.3138 0.999999 7 0.999999ZM6 4C6 3.44771 6.44772 3 7 3C7.55228 3 8 3.44771 8 4V7C8 7.55228 7.55228 8 7 8C6.44772 8 6 7.55228 6 7V4ZM7 9C6.44772 9 6 9.44772 6 10C6 10.5523 6.44772 11 7 11C7.55228 11 8 10.5523 8 10C8 9.44772 7.55228 9 7 9Z" fill="#F04F43"/>
</svg>
